<?xml version="1.0" encoding="UTF-8" standalone="no"?>
<!-- Created with Inkscape (http://www.inkscape.org/) -->

<svg
   xmlns:dc="http://purl.org/dc/elements/1.1/"
   xmlns:cc="http://creativecommons.org/ns#"
   xmlns:rdf="http://www.w3.org/1999/02/22-rdf-syntax-ns#"
   xmlns:svg="http://www.w3.org/2000/svg"
   xmlns="http://www.w3.org/2000/svg"
   xmlns:sodipodi="http://sodipodi.sourceforge.net/DTD/sodipodi-0.dtd"
   xmlns:inkscape="http://www.inkscape.org/namespaces/inkscape"
   width="256"
   height="64"
   id="svg2"
   version="1.1"
   inkscape:version="0.48.5 r10040"
   inkscape:export-filename="/home/henrik/Development/castio-android.git/res/drawable/logo.png"
   inkscape:export-xdpi="140.78999"
   inkscape:export-ydpi="140.78999"
   sodipodi:docname="New document 1">
  <defs
     id="defs4">
    <filter
       inkscape:collect="always"
       id="filter3837"
       x="-0.046131037"
       width="1.0922621"
       y="-0.23473518"
       height="1.4694703"
       color-interpolation-filters="sRGB">
      <feGaussianBlur
         inkscape:collect="always"
         stdDeviation="2.9590236"
         id="feGaussianBlur3839" />
    </filter>
  </defs>
  <sodipodi:namedview
     id="base"
     pagecolor="#ffffff"
     bordercolor="#666666"
     borderopacity="1.0"
     inkscape:pageopacity="0.0"
     inkscape:pageshadow="2"
     inkscape:zoom="1.4"
     inkscape:cx="195.57753"
     inkscape:cy="79.904891"
     inkscape:document-units="px"
     inkscape:current-layer="layer1"
     showgrid="false"
     inkscape:window-width="1130"
     inkscape:window-height="804"
     inkscape:window-x="0"
     inkscape:window-y="27"
     inkscape:window-maximized="0" />
  <metadata
     id="metadata7">
    <rdf:RDF>
      <cc:Work
         rdf:about="">
        <dc:format>image/svg+xml</dc:format>
        <dc:type
           rdf:resource="http://purl.org/dc/dcmitype/StillImage" />
        <dc:title></dc:title>
      </cc:Work>
    </rdf:RDF>
  </metadata>
  <g
     inkscape:label="Layer 1"
     inkscape:groupmode="layer"
     id="layer1"
     transform="translate(0,-988.36218)">
    <g
       style="font-size:40px;font-style:normal;font-variant:normal;font-weight:normal;font-stretch:normal;line-height:125%;letter-spacing:0px;word-spacing:0px;fill:#fdef77;fill-opacity:0.45490196;stroke:#fdef77;stroke-width:2.9000001;stroke-miterlimit:4;stroke-opacity:0.456621;stroke-dasharray:none;filter:url(#filter3837);font-family:OpenSymbol;-inkscape-font-specification:OpenSymbol"
       id="text2985-9"
       transform="translate(-63.942419,814.44539)"
       inkscape:export-filename="/home/henrik/Development/castio-android.git/res/drawable/logo.png"
       inkscape:export-xdpi="67.349998"
       inkscape:export-ydpi="67.349998">
      <path
         d="m 137.19029,194.01955 0,4.16015 c -1.32815,-1.23695 -2.74742,-2.16143 -4.25781,-2.77343 -1.49742,-0.61196 -3.09247,-0.91795 -4.78516,-0.91797 -3.33334,2e-5 -5.88542,1.02216 -7.65625,3.0664 -1.77084,2.03127 -2.65625,4.97398 -2.65625,8.82813 0,3.84115 0.88541,6.78386 2.65625,8.82812 1.77083,2.03126 4.32291,3.04688 7.65625,3.04688 1.69269,0 3.28774,-0.30599 4.78516,-0.91797 1.51039,-0.61198 2.92966,-1.53645 4.25781,-2.77344 l 0,4.1211 c -1.38023,0.9375 -2.84507,1.64062 -4.39453,2.10937 -1.53648,0.46875 -3.16408,0.70312 -4.88281,0.70313 -4.41408,-1e-5 -7.89063,-1.34766 -10.42969,-4.04297 -2.53906,-2.70833 -3.80859,-6.39973 -3.80859,-11.07422 0,-4.68748 1.26953,-8.37889 3.80859,-11.07422 2.53906,-2.70831 6.01561,-4.06247 10.42969,-4.0625 1.74477,3e-5 3.3854,0.2344 4.92187,0.70312 1.54946,0.45576 3.00128,1.14587 4.35547,2.07032"
         style="fill:#fdef77;fill-opacity:0.45490196;stroke:#fdef77;stroke-width:2.9000001;stroke-miterlimit:4;stroke-opacity:0.456621;stroke-dasharray:none"
         id="path3758-1"
         inkscape:connector-curvature="0" />
      <path
         d="m 153.0692,195.66017 -5.35156,14.51172 10.72265,0 -5.37109,-14.51172 m -2.22656,-3.88672 4.47265,0 11.11328,29.16016 -4.10156,0 -2.65625,-7.48047 -13.14453,0 -2.65625,7.48047 -4.16016,0 11.13282,-29.16016"
         style="fill:#fdef77;fill-opacity:0.45490196;stroke:#fdef77;stroke-width:2.9000001;stroke-miterlimit:4;stroke-opacity:0.456621;stroke-dasharray:none"
         id="path3760-6"
         inkscape:connector-curvature="0" />
      <path
         d="m 188.14732,192.73048 0,3.84766 c -1.49741,-0.71612 -2.91017,-1.24997 -4.23828,-1.60156 -1.32814,-0.35154 -2.61069,-0.52732 -3.84765,-0.52735 -2.14845,3e-5 -3.80861,0.4167 -4.98047,1.25 -1.15886,0.83336 -1.73829,2.01826 -1.73828,3.55469 -10e-6,1.28908 0.3841,2.26565 1.15234,2.92969 0.78124,0.65106 2.25259,1.1784 4.41406,1.58203 l 2.38281,0.48828 c 2.9427,0.55991 5.11066,1.5495 6.50391,2.96875 1.40623,1.40626 2.10935,3.29428 2.10938,5.66406 -3e-5,2.82553 -0.95055,4.96746 -2.85157,6.42579 -1.88804,1.45833 -4.66147,2.18749 -8.32031,2.1875 -1.38022,-1e-5 -2.85157,-0.15626 -4.41406,-0.46875 -1.54949,-0.3125 -3.15756,-0.77474 -4.82422,-1.38672 l 0,-4.0625 c 1.60156,0.89844 3.17057,1.57552 4.70703,2.03125 1.53645,0.45573 3.04687,0.68359 4.53125,0.68359 2.25259,0 3.99087,-0.4427 5.21484,-1.32812 1.22394,-0.88542 1.83592,-2.14844 1.83594,-3.78907 -2e-5,-1.43228 -0.44272,-2.55207 -1.32812,-3.35937 -0.87242,-0.80728 -2.31122,-1.41275 -4.31641,-1.81641 l -2.40234,-0.46875 c -2.94272,-0.58592 -5.07162,-1.50389 -6.38672,-2.7539 -1.31511,-1.24999 -1.97266,-2.98827 -1.97266,-5.21485 0,-2.5781 0.90495,-4.60935 2.71485,-6.09375 1.82291,-1.48434 4.32941,-2.22653 7.51953,-2.22656 1.36717,3e-5 2.7604,0.12373 4.17968,0.37109 1.41926,0.24743 2.87108,0.61852 4.35547,1.11328"
         style="fill:#fdef77;fill-opacity:0.45490196;stroke:#fdef77;stroke-width:2.9000001;stroke-miterlimit:4;stroke-opacity:0.456621;stroke-dasharray:none"
         id="path3762-5"
         inkscape:connector-curvature="0" />
      <path
         d="m 192.01451,191.77345 24.66797,0 0,3.32032 -10.35156,0 0,25.83984 -3.96485,0 0,-25.83984 -10.35156,0 0,-3.32032"
         style="fill:#fdef77;fill-opacity:0.45490196;stroke:#fdef77;stroke-width:2.9000001;stroke-miterlimit:4;stroke-opacity:0.456621;stroke-dasharray:none"
         id="path3764-5"
         inkscape:connector-curvature="0" />
      <path
         d="m 220.06139,217.76955 c 0.42968,-0.42969 0.93749,-0.64453 1.52343,-0.64453 0.58594,0 1.09375,0.21484 1.52344,0.64453 0.42968,0.42969 0.64453,0.9375 0.64453,1.52343 0,0.59896 -0.21485,1.1198 -0.64453,1.5625 -0.42969,0.42969 -0.9375,0.64453 -1.52344,0.64454 -0.57292,-1e-5 -1.08073,-0.22136 -1.52343,-0.66407 -0.42969,-0.45573 -0.64454,-0.97005 -0.64454,-1.54297 0,-0.58593 0.21485,-1.09374 0.64454,-1.52343"
         style="fill:#fdef77;fill-opacity:0.45490196;stroke:#fdef77;stroke-width:2.9000001;stroke-miterlimit:4;stroke-opacity:0.456621;stroke-dasharray:none"
         id="path3766-3"
         inkscape:connector-curvature="0" />
      <path
         d="m 230.5106,191.77345 3.94532,0 0,29.16016 -3.94532,0 0,-29.16016"
         style="fill:#fdef77;fill-opacity:0.45490196;stroke:#fdef77;stroke-width:2.9000001;stroke-miterlimit:4;stroke-opacity:0.456621;stroke-dasharray:none"
         id="path3768-0"
         inkscape:connector-curvature="0" />
      <path
         d="m 254.14342,194.44923 c -2.8646,3e-5 -5.14324,1.06774 -6.83594,3.20313 -1.67969,2.13544 -2.51954,5.04559 -2.51953,8.73047 -1e-5,3.67188 0.83984,6.57553 2.51953,8.71094 1.6927,2.13542 3.97134,3.20312 6.83594,3.20312 2.86456,0 5.13018,-1.0677 6.79687,-3.20312 1.67967,-2.13541 2.51951,-5.03906 2.51953,-8.71094 -2e-5,-3.68488 -0.83986,-6.59503 -2.51953,-8.73047 -1.66669,-2.13539 -3.93231,-3.2031 -6.79687,-3.20313 m 0,-3.20312 c 4.08852,3e-5 7.35675,1.37373 9.80468,4.12109 2.44789,2.7344 3.67185,6.40627 3.67188,11.01563 -3e-5,4.59636 -1.22399,8.26823 -3.67188,11.01562 -2.44793,2.73438 -5.71616,4.10156 -9.80468,4.10157 -4.10158,-1e-5 -7.38282,-1.36719 -9.84375,-4.10157 -2.44792,-2.73437 -3.67188,-6.40624 -3.67188,-11.01562 0,-4.60936 1.22396,-8.28123 3.67188,-11.01563 2.46093,-2.74736 5.74217,-4.12106 9.84375,-4.12109"
         style="fill:#fdef77;fill-opacity:0.45490196;stroke:#fdef77;stroke-width:2.9000001;stroke-miterlimit:4;stroke-opacity:0.456621;stroke-dasharray:none"
         id="path3770-3"
         inkscape:connector-curvature="0" />
    </g>
    <g
       style="font-size:40px;font-style:normal;font-variant:normal;font-weight:normal;font-stretch:normal;line-height:125%;letter-spacing:0px;word-spacing:0px;fill:#fbe220;fill-opacity:1;stroke:#fbe220;stroke-width:2.9000001;stroke-miterlimit:4;stroke-opacity:1;stroke-dasharray:none;font-family:OpenSymbol;-inkscape-font-specification:OpenSymbol"
       id="text2985"
       transform="translate(-65.224078,813.44888)"
       inkscape:export-xdpi="67.349998"
       inkscape:export-ydpi="67.349998"
       inkscape:export-filename="/home/henrik/Development/castio-android.git/res/drawable/logo.png">
      <path
         d="m 137.19029,194.01955 0,4.16015 c -1.32815,-1.23695 -2.74742,-2.16143 -4.25781,-2.77343 -1.49742,-0.61196 -3.09247,-0.91795 -4.78516,-0.91797 -3.33334,2e-5 -5.88542,1.02216 -7.65625,3.0664 -1.77084,2.03127 -2.65625,4.97398 -2.65625,8.82813 0,3.84115 0.88541,6.78386 2.65625,8.82812 1.77083,2.03126 4.32291,3.04688 7.65625,3.04688 1.69269,0 3.28774,-0.30599 4.78516,-0.91797 1.51039,-0.61198 2.92966,-1.53645 4.25781,-2.77344 l 0,4.1211 c -1.38023,0.9375 -2.84507,1.64062 -4.39453,2.10937 -1.53648,0.46875 -3.16408,0.70312 -4.88281,0.70313 -4.41408,-1e-5 -7.89063,-1.34766 -10.42969,-4.04297 -2.53906,-2.70833 -3.80859,-6.39973 -3.80859,-11.07422 0,-4.68748 1.26953,-8.37889 3.80859,-11.07422 2.53906,-2.70831 6.01561,-4.06247 10.42969,-4.0625 1.74477,3e-5 3.3854,0.2344 4.92187,0.70312 1.54946,0.45576 3.00128,1.14587 4.35547,2.07032"
         style="fill:#fbe220;fill-opacity:1;stroke:#fbe220;stroke-width:2.9000001;stroke-miterlimit:4;stroke-opacity:1;stroke-dasharray:none"
         id="path3758"
         inkscape:connector-curvature="0" />
      <path
         d="m 153.0692,195.66017 -5.35156,14.51172 10.72265,0 -5.37109,-14.51172 m -2.22656,-3.88672 4.47265,0 11.11328,29.16016 -4.10156,0 -2.65625,-7.48047 -13.14453,0 -2.65625,7.48047 -4.16016,0 11.13282,-29.16016"
         style="fill:#fbe220;fill-opacity:1;stroke:#fbe220;stroke-width:2.9000001;stroke-miterlimit:4;stroke-opacity:1;stroke-dasharray:none"
         id="path3760"
         inkscape:connector-curvature="0" />
      <path
         d="m 188.14732,192.73048 0,3.84766 c -1.49741,-0.71612 -2.91017,-1.24997 -4.23828,-1.60156 -1.32814,-0.35154 -2.61069,-0.52732 -3.84765,-0.52735 -2.14845,3e-5 -3.80861,0.4167 -4.98047,1.25 -1.15886,0.83336 -1.73829,2.01826 -1.73828,3.55469 -10e-6,1.28908 0.3841,2.26565 1.15234,2.92969 0.78124,0.65106 2.25259,1.1784 4.41406,1.58203 l 2.38281,0.48828 c 2.9427,0.55991 5.11066,1.5495 6.50391,2.96875 1.40623,1.40626 2.10935,3.29428 2.10938,5.66406 -3e-5,2.82553 -0.95055,4.96746 -2.85157,6.42579 -1.88804,1.45833 -4.66147,2.18749 -8.32031,2.1875 -1.38022,-1e-5 -2.85157,-0.15626 -4.41406,-0.46875 -1.54949,-0.3125 -3.15756,-0.77474 -4.82422,-1.38672 l 0,-4.0625 c 1.60156,0.89844 3.17057,1.57552 4.70703,2.03125 1.53645,0.45573 3.04687,0.68359 4.53125,0.68359 2.25259,0 3.99087,-0.4427 5.21484,-1.32812 1.22394,-0.88542 1.83592,-2.14844 1.83594,-3.78907 -2e-5,-1.43228 -0.44272,-2.55207 -1.32812,-3.35937 -0.87242,-0.80728 -2.31122,-1.41275 -4.31641,-1.81641 l -2.40234,-0.46875 c -2.94272,-0.58592 -5.07162,-1.50389 -6.38672,-2.7539 -1.31511,-1.24999 -1.97266,-2.98827 -1.97266,-5.21485 0,-2.5781 0.90495,-4.60935 2.71485,-6.09375 1.82291,-1.48434 4.32941,-2.22653 7.51953,-2.22656 1.36717,3e-5 2.7604,0.12373 4.17968,0.37109 1.41926,0.24743 2.87108,0.61852 4.35547,1.11328"
         style="fill:#fbe220;fill-opacity:1;stroke:#fbe220;stroke-width:2.9000001;stroke-miterlimit:4;stroke-opacity:1;stroke-dasharray:none"
         id="path3762"
         inkscape:connector-curvature="0" />
      <path
         d="m 192.01451,191.77345 24.66797,0 0,3.32032 -10.35156,0 0,25.83984 -3.96485,0 0,-25.83984 -10.35156,0 0,-3.32032"
         style="fill:#fbe220;fill-opacity:1;stroke:#fbe220;stroke-width:2.9000001;stroke-miterlimit:4;stroke-opacity:1;stroke-dasharray:none"
         id="path3764"
         inkscape:connector-curvature="0" />
      <path
         d="m 220.06139,217.76955 c 0.42968,-0.42969 0.93749,-0.64453 1.52343,-0.64453 0.58594,0 1.09375,0.21484 1.52344,0.64453 0.42968,0.42969 0.64453,0.9375 0.64453,1.52343 0,0.59896 -0.21485,1.1198 -0.64453,1.5625 -0.42969,0.42969 -0.9375,0.64453 -1.52344,0.64454 -0.57292,-1e-5 -1.08073,-0.22136 -1.52343,-0.66407 -0.42969,-0.45573 -0.64454,-0.97005 -0.64454,-1.54297 0,-0.58593 0.21485,-1.09374 0.64454,-1.52343"
         style="fill:#fbe220;fill-opacity:1;stroke:#fbe220;stroke-width:2.9000001;stroke-miterlimit:4;stroke-opacity:1;stroke-dasharray:none"
         id="path3766"
         inkscape:connector-curvature="0" />
      <path
         d="m 230.5106,191.77345 3.94532,0 0,29.16016 -3.94532,0 0,-29.16016"
         style="fill:#fbe220;fill-opacity:1;stroke:#fbe220;stroke-width:2.9000001;stroke-miterlimit:4;stroke-opacity:1;stroke-dasharray:none"
         id="path3768"
         inkscape:connector-curvature="0" />
      <path
         d="m 254.14342,194.44923 c -2.8646,3e-5 -5.14324,1.06774 -6.83594,3.20313 -1.67969,2.13544 -2.51954,5.04559 -2.51953,8.73047 -1e-5,3.67188 0.83984,6.57553 2.51953,8.71094 1.6927,2.13542 3.97134,3.20312 6.83594,3.20312 2.86456,0 5.13018,-1.0677 6.79687,-3.20312 1.67967,-2.13541 2.51951,-5.03906 2.51953,-8.71094 -2e-5,-3.68488 -0.83986,-6.59503 -2.51953,-8.73047 -1.66669,-2.13539 -3.93231,-3.2031 -6.79687,-3.20313 m 0,-3.20312 c 4.08852,3e-5 7.35675,1.37373 9.80468,4.12109 2.44789,2.7344 3.67185,6.40627 3.67188,11.01563 -3e-5,4.59636 -1.22399,8.26823 -3.67188,11.01562 -2.44793,2.73438 -5.71616,4.10156 -9.80468,4.10157 -4.10158,-1e-5 -7.38282,-1.36719 -9.84375,-4.10157 -2.44792,-2.73437 -3.67188,-6.40624 -3.67188,-11.01562 0,-4.60936 1.22396,-8.28123 3.67188,-11.01563 2.46093,-2.74736 5.74217,-4.12106 9.84375,-4.12109"
         style="fill:#fbe220;fill-opacity:1;stroke:#fbe220;stroke-width:2.9000001;stroke-miterlimit:4;stroke-opacity:1;stroke-dasharray:none"
         id="path3770"
         inkscape:connector-curvature="0" />
    </g>
  </g>
</svg>
